<svg width="32" height="32" viewBox="0 0 32 32" fill="none" xmlns="http://www.w3.org/2000/svg">
<path d="M22.1384 14.7307C22.9505 13.3468 23.3012 11.7404 23.1398 10.144C22.9011 7.76533 21.5731 5.66267 19.4024 4.224L17.9291 6.44533C19.4211 7.43467 20.3291 8.844 20.4864 10.4107C20.559 11.1388 20.4683 11.8739 20.2211 12.5626C19.9738 13.2513 19.5762 13.8763 19.0571 14.392L17.4678 15.9813L19.6251 16.6147C25.2678 18.268 25.3331 23.9427 25.3331 24H27.9998C27.9998 21.6147 26.7251 16.9533 22.1384 14.7307Z" fill="white"/>
<path d="M12.667 16C15.6083 16 18.0003 13.608 18.0003 10.6667C18.0003 7.72537 15.6083 5.33337 12.667 5.33337C9.72566 5.33337 7.33366 7.72537 7.33366 10.6667C7.33366 13.608 9.72566 16 12.667 16ZM12.667 8.00004C14.1377 8.00004 15.3337 9.19604 15.3337 10.6667C15.3337 12.1374 14.1377 13.3334 12.667 13.3334C11.1963 13.3334 10.0003 12.1374 10.0003 10.6667C10.0003 9.19604 11.1963 8.00004 12.667 8.00004ZM14.667 17.3334H10.667C6.25499 17.3334 2.66699 20.9214 2.66699 25.3334V26.6667H5.33366V25.3334C5.33366 22.392 7.72566 20 10.667 20H14.667C17.6083 20 20.0003 22.392 20.0003 25.3334V26.6667H22.667V25.3334C22.667 20.9214 19.079 17.3334 14.667 17.3334Z" fill="white"/>
</svg>
