<svg width="28" height="28" viewBox="0 0 28 28" fill="none" xmlns="http://www.w3.org/2000/svg">
<path d="M22.1667 4.66666H18.6667V2.33333H16.3333V4.66666H11.6667V2.33333H9.33333V4.66666H5.83333C4.5465 4.66666 3.5 5.71316 3.5 7V23.3333C3.5 24.6202 4.5465 25.6667 5.83333 25.6667H22.1667C23.4535 25.6667 24.5 24.6202 24.5 23.3333V7C24.5 5.71316 23.4535 4.66666 22.1667 4.66666ZM5.83333 23.3333V8.16666H22.1667V7L22.169 23.3333H5.83333Z" fill="white"/>
<path d="M8.16699 10.5H19.8337V12.8333H8.16699V10.5ZM8.16699 15.1667H14.0003V17.5H8.16699V15.1667Z" fill="white"/>
</svg>
