<svg width="23" height="20" viewBox="0 0 23 20" fill="none" xmlns="http://www.w3.org/2000/svg">
<path d="M4.79167 18.3333H18.2083C19.2654 18.3333 20.125 17.5858 20.125 16.6666V4.16663C20.125 3.24746 19.2654 2.49996 18.2083 2.49996H16.2917C16.2917 2.27895 16.1907 2.06698 16.011 1.9107C15.8313 1.75442 15.5875 1.66663 15.3333 1.66663H7.66667C7.4125 1.66663 7.16875 1.75442 6.98902 1.9107C6.8093 2.06698 6.70833 2.27895 6.70833 2.49996H4.79167C3.73462 2.49996 2.875 3.24746 2.875 4.16663V16.6666C2.875 17.5858 3.73462 18.3333 4.79167 18.3333ZM4.79167 4.16663H6.70833V5.83329H16.2917V4.16663H18.2083V16.6666H4.79167V4.16663Z" fill="#00AF71"/>
<path d="M10.5421 11.3217L8.82383 9.82756L7.46875 11.0059L10.5421 13.6784L15.5322 9.33922L14.1771 8.16089L10.5421 11.3217Z" fill="#00AF71"/>
</svg>
