<svg width="28" height="28" viewBox="0 0 28 28" fill="none" xmlns="http://www.w3.org/2000/svg">
<path d="M5.83333 25.6667H22.1667C23.4535 25.6667 24.5 24.6202 24.5 23.3333V5.83333C24.5 4.5465 23.4535 3.49999 22.1667 3.49999H19.8333C19.8333 3.19058 19.7104 2.89383 19.4916 2.67504C19.2728 2.45624 18.9761 2.33333 18.6667 2.33333H9.33333C9.02391 2.33333 8.72717 2.45624 8.50838 2.67504C8.28958 2.89383 8.16667 3.19058 8.16667 3.49999H5.83333C4.5465 3.49999 3.5 4.5465 3.5 5.83333V23.3333C3.5 24.6202 4.5465 25.6667 5.83333 25.6667ZM5.83333 5.83333H8.16667V8.16666H19.8333V5.83333H22.1667V23.3333H5.83333V5.83333Z" fill="white"/>
<path d="M12.8333 15.8503L10.7415 13.7585L9.0918 15.4082L12.8333 19.1497L18.9081 13.0748L17.2585 11.4252L12.8333 15.8503Z" fill="white"/>
</svg>
