<svg width="34" height="34" viewBox="0 0 34 34" fill="none" xmlns="http://www.w3.org/2000/svg">
<path d="M5.66699 26.9167V24.0833H8.50033V14.1667C8.50033 12.207 9.0906 10.4715 10.2712 8.96043C11.4517 7.4257 12.9864 6.42223 14.8753 5.95001V4.95834C14.8753 4.36807 15.076 3.87223 15.4774 3.47084C15.9024 3.04584 16.41 2.83334 17.0003 2.83334C17.5906 2.83334 18.0864 3.04584 18.4878 3.47084C18.9128 3.87223 19.1253 4.36807 19.1253 4.95834V5.95001C21.0142 6.42223 22.5489 7.4257 23.7295 8.96043C24.91 10.4715 25.5003 12.207 25.5003 14.1667V24.0833H28.3337V26.9167H5.66699ZM17.0003 31.1667C16.2212 31.1667 15.5482 30.8951 14.9816 30.3521C14.4385 29.7854 14.167 29.1125 14.167 28.3333H19.8337C19.8337 29.1125 19.5503 29.7854 18.9837 30.3521C18.4406 30.8951 17.7795 31.1667 17.0003 31.1667ZM11.3337 24.0833H22.667V14.1667C22.667 12.6083 22.1121 11.2743 21.0024 10.1646C19.8927 9.05487 18.5587 8.50001 17.0003 8.50001C15.442 8.50001 14.108 9.05487 12.9982 10.1646C11.8885 11.2743 11.3337 12.6083 11.3337 14.1667V24.0833Z" fill="#FEF7FF"/>
</svg>
