<svg width="28" height="27" viewBox="0 0 28 27" fill="none" xmlns="http://www.w3.org/2000/svg">
<g clip-path="url(#clip0_252_337)">
<path d="M23.6817 22.8175C21.0644 20.4885 17.6453 19.1769 14.0842 19.1356C10.5231 19.0944 7.0723 20.3265 4.39775 22.5941L3.1875 21.27C6.20131 18.7138 10.0901 17.3245 14.1036 17.3701C18.1171 17.4158 21.9708 18.8931 24.9213 21.5172L23.6817 22.8175Z" fill="white"/>
<path d="M13.9106 7.72853C14.8086 7.72853 15.6865 7.98533 16.4332 8.46644C17.1799 8.94756 17.7619 9.63138 18.1056 10.4314C18.4493 11.2315 18.5392 12.1119 18.364 12.9612C18.1888 13.8105 17.7563 14.5907 17.1213 15.2031C16.4863 15.8154 15.6772 16.2324 14.7964 16.4014C13.9156 16.5703 13.0027 16.4836 12.173 16.1522C11.3433 15.8208 10.6341 15.2596 10.1352 14.5396C9.63625 13.8195 9.36998 12.973 9.36998 12.107C9.37143 10.9462 9.85025 9.83333 10.7015 9.01251C11.5527 8.19169 12.7068 7.72993 13.9106 7.72853ZM13.9106 5.96301C12.6504 5.96301 11.4185 6.32335 10.3707 6.99846C9.32295 7.67357 8.50631 8.63313 8.02407 9.7558C7.54182 10.8785 7.41565 12.1138 7.66149 13.3056C7.90734 14.4975 8.51416 15.5922 9.40523 16.4515C10.2963 17.3107 11.4316 17.8959 12.6676 18.1329C13.9035 18.37 15.1846 18.2483 16.3489 17.7833C17.5131 17.3183 18.5082 16.5308 19.2083 15.5204C19.9085 14.5101 20.2821 13.3222 20.2821 12.107C20.2821 10.4775 19.6108 8.91477 18.4159 7.76255C17.221 6.61033 15.6004 5.96301 13.9106 5.96301Z" fill="white"/>
<path d="M14 1.76832C16.4068 1.76832 18.7596 2.45654 20.7608 3.74594C22.762 5.03535 24.3217 6.86802 25.2428 9.01222C26.1638 11.1564 26.4048 13.5158 25.9352 15.7921C25.4657 18.0684 24.3067 20.1593 22.6048 21.8004C20.9029 23.4415 18.7346 24.559 16.3741 25.0118C14.0135 25.4646 11.5667 25.2322 9.34307 24.3441C7.11946 23.4559 5.21892 21.9519 3.88177 20.0222C2.54461 18.0924 1.83088 15.8237 1.83088 13.5028C1.83452 10.3917 3.11779 7.40904 5.39916 5.20916C7.68052 3.00927 10.7737 1.77183 14 1.76832ZM14 0.00280762C11.2311 0.00280762 8.52431 0.794579 6.22202 2.27798C3.91973 3.76138 2.12531 5.86978 1.06568 8.33659C0.00605215 10.8034 -0.271176 13.5178 0.269017 16.1365C0.80921 18.7553 2.14258 21.1608 4.10051 23.0488C6.05845 24.9368 8.55301 26.2225 11.2687 26.7434C13.9845 27.2643 16.7994 26.997 19.3576 25.9752C21.9157 24.9534 24.1022 23.2231 25.6406 21.003C27.1789 18.7829 28 16.1729 28 13.5028C28 9.92239 26.525 6.48861 23.8995 3.95687C21.274 1.42513 17.713 0.00280762 14 0.00280762Z" fill="white"/>
</g>
<defs>
<clipPath id="clip0_252_337">
<rect width="28" height="27" fill="white"/>
</clipPath>
</defs>
</svg>
